<?xml version="1.0" encoding="UTF-8"?>
<!DOCTYPE svg PUBLIC "-//W3C//DTD SVG 1.1//EN" "http://www.w3.org/Graphics/SVG/1.1/DTD/svg11.dtd">
<!-- Creator: CorelDRAW X6 -->
<svg xmlns="http://www.w3.org/2000/svg" xml:space="preserve" width="2.794mm" height="2.54mm" version="1.1" style="shape-rendering:geometricPrecision; text-rendering:geometricPrecision; image-rendering:optimizeQuality; fill-rule:evenodd; clip-rule:evenodd"
viewBox="0 0 279 254"
 xmlns:xlink="http://www.w3.org/1999/xlink">
 <defs>
  <style type="text/css">
   <![CDATA[
    .fil2 {fill:#B55414}
    .fil1 {fill:#E86D09}
    .fil3 {fill:#FF8000}
    .fil0 {fill:#FF9900}
   ]]>
  </style>
 </defs>
 <g id="Слой_x0020_1">
  <metadata id="CorelCorpID_0Corel-Layer"/>
  <g id="_830363888">
   <path class="fil0" d="M140 94l0 88c6,-6 11,-14 17,-20l41 -52c2,-2 2,-3 4,-5 18,-23 67,-77 77,-98 -7,4 -14,9 -20,13l-85 54c-11,7 -23,16 -34,21z"/>
   <path class="fil1" d="M214 151l14 98 51 -243c-3,6 -15,34 -17,40 -7,15 -44,103 -47,105z"/>
   <path class="fil2" d="M204 99l9 51c3,-2 41,-89 47,-105 4,-9 15,-34 17,-40 -4,5 -63,80 -74,94z"/>
   <path class="fil3" d="M140 94l0 88c-6,-6 -11,-14 -17,-20l-41 -52c-2,-2 -2,-3 -4,-5 -18,-23 -67,-77 -77,-98 7,4 14,9 20,13l85 54c11,7 23,16 34,21z"/>
   <path class="fil1" d="M66 151l-14 98 -51 -243c3,6 15,34 17,40 7,15 44,103 47,105z"/>
   <path class="fil2" d="M75 99l-9 51c-3,-2 -41,-89 -47,-105 -4,-9 -15,-34 -17,-40 4,5 63,80 74,94z"/>
  </g>
 </g>
</svg>
